# xmcd
#
# Track frame offsets:
#	150
#	16766
#	41508
#	52784
#	65665
#	74602
#	83934
#	90623
#	102656
#	110705
#	127553
#	138142
#	159219
#	168492
#
# Disc length: 2405 seconds
#
# Revision: 0
# Processed by: cddbd v1.5.2PL0 Copyright (c) Steve Scherf et al.
# Submitted via: EZCDAudioConverter 2.1.7.1
#
DISCID=b009630e
DTITLE=Cactano Veloso - Cactano Veloso (1967)
DYEAR=1900
DGENRE=
TTITLE0=Tropicália
TTITLE1=Clarice
TTITLE2=No Dia Em Que Eu Vim-Me Embora
TTITLE3=Alegria, Alegria
TTITLE4=Onde Andarás
TTITLE5=Anunciação
TTITLE6=Superbacana
TTITLE7=Paisagem Útil
TTITLE8=Clara
TTITLE9=Soy Loco Por Tí, América
TTITLE10=Ave Maria
TTITLE11=Eles
TTITLE12=Yes, Nós Temos Banana
TTITLE13=Ai De Mim, Copacabana
EXTD=
EXTT0=
EXTT1=
EXTT2=
EXTT3=
EXTT4=
EXTT5=
EXTT6=
EXTT7=
EXTT8=
EXTT9=
EXTT10=
EXTT11=
EXTT12=
EXTT13=
PLAYORDER=
